<svg xmlns="http://www.w3.org/2000/svg" viewBox="0 0 100 100" role="img" aria-label="Romain Ben">
  <title>Romain Ben</title>
  <rect width="100" height="100" fill="#101114"/>
  <path fill="#FAFAF9" fill-rule="evenodd" d="M35.7 61.27 L32.98 53.42 C32.46 51.88 31.78 50.67 30.94 49.79 C30.1 48.91 29.19 48.47 28.21 48.47 L27.78 48.47 L27.78 61.27 L16.81 61.27 L16.81 24.86 L31.38 24.86 C36.48 24.86 40.24 25.69 42.67 27.36 C45.1 29.03 46.31 31.53 46.31 34.86 C46.31 37.37 45.61 39.47 44.19 41.16 C42.78 42.85 40.68 44.08 37.88 44.84 L37.88 44.94 C39.42 45.42 40.71 46.19 41.73 47.25 C42.75 48.32 43.67 49.9 44.48 52 L48.06 61.27 Z M34.66 36.41 C34.66 35.19 34.29 34.23 33.54 33.52 C32.8 32.8 31.63 32.45 30.04 32.45 L27.78 32.45 L27.78 40.78 L29.76 40.78 C31.23 40.78 32.42 40.36 33.31 39.53 C34.21 38.7 34.66 37.66 34.66 36.41 Z M84.45 50.1 C84.45 53.67 83.2 56.42 80.69 58.36 C78.19 60.3 74.61 61.27 69.95 61.27 L53.35 61.27 L53.35 24.86 L68.81 24.86 C78.47 24.86 83.31 27.79 83.31 33.67 C83.31 34.94 83 36.1 82.39 37.16 C81.78 38.22 80.86 39.14 79.61 39.94 C78.37 40.74 77 41.28 75.51 41.56 L75.51 41.67 C77.24 41.87 78.79 42.38 80.16 43.2 C81.53 44.02 82.59 45.05 83.33 46.27 C84.08 47.5 84.45 48.78 84.45 50.1 Z M71.65 35.57 C71.65 33.32 69.88 32.2 66.35 32.2 L64.31 32.2 L64.31 39.08 L67.49 39.08 C68.71 39.08 69.71 38.75 70.48 38.1 C71.26 37.45 71.65 36.6 71.65 35.57 Z M72.79 50.04 C72.79 49 72.41 48.13 71.65 47.46 C70.89 46.78 69.88 46.44 68.63 46.44 L64.31 46.44 L64.31 53.88 L67.97 53.88 C69.46 53.88 70.64 53.54 71.5 52.85 C72.36 52.17 72.79 51.23 72.79 50.04 Z"/>
  <rect x="0" y="86" width="100" height="14" fill="#2B3FD9"/>
</svg>
